# xmcd
#
# Track frame offsets: 
#        150
#        12013
#        23152
#        42721
#        53871
#        66553
#        79921
#        90568
#        106033
#        117909
#        131865
#        152122
#        164036
#        174410
#        185459
#        201354
#        213362
#        224833
#        240479
#        249942
#        258584
#        268636
#        279745
#        300465
#        317041
#        326115
#
# Disc length: 4458 seconds
#
# Revision: 0
# Processed by: cddbd v1.5.2PL0 Copyright (c) Steve Scherf et al.
# Submitted via: ExactAudioCopyFreeDBPlugin 1.0
#
DISCID=8711681a
DTITLE=Various Artist - The Strangers and Jindra Šťáhlavský
DYEAR=2013
DGENRE=Country
TTITLE0=Zas mě volá Georgia
TTITLE1=Lora
TTITLE2=Mé Ohio
TTITLE3=Krávy
TTITLE4=Sedm dlouhých dnů
TTITLE5=Noc kouzelná
TTITLE6=Pole s bavlnou
TTITLE7=Dráček Paf
TTITLE8=Matterhorn
TTITLE9=Expres na Levín
TTITLE10=Dívka z Rocky Mountain
TTITLE11=Hráze
TTITLE12=Zelený šeřík
TTITLE13=Jak mít rád
TTITLE14=Starý mlýn
TTITLE15=Hřbitov vlaků
TTITLE16=Hvízdavý Dan
TTITLE17=Drahá Suzan
TTITLE18=Sousedovic kůň
TTITLE19=Poustevník
TTITLE20=Luna bílá
TTITLE21=Severní cesta
TTITLE22=Jen dál
TTITLE23=Koník
TTITLE24=Tik tik tin
TTITLE25=Telnický bál
EXTD=
EXTT0=
EXTT1=
EXTT2=
EXTT3=
EXTT4=
EXTT5=
EXTT6=
EXTT7=
EXTT8=
EXTT9=
EXTT10=
EXTT11=
EXTT12=
EXTT13=
EXTT14=
EXTT15=
EXTT16=
EXTT17=
EXTT18=
EXTT19=
EXTT20=
EXTT21=
EXTT22=
EXTT23=
EXTT24=
EXTT25=
PLAYORDER=
